<svg xmlns="http://www.w3.org/2000/svg" width="493" height="506" viewBox="0 0 493 506" version="1.1"><path d="M 429.255 145.250 C 428.711 145.938, 427.731 147.625, 427.078 149 C 425.964 151.343, 425.986 151.379, 427.429 149.581 C 428.905 147.740, 429.048 147.734, 430.929 149.435 C 432.007 150.411, 433.067 152.625, 433.284 154.355 C 433.502 156.085, 433.752 154.463, 433.840 150.750 C 433.982 144.757, 433.790 144, 432.122 144 C 431.090 144, 429.799 144.563, 429.255 145.250 M 33.633 357.643 C 32.143 360.767, 32.128 361.345, 33.487 363.284 C 34.441 364.647, 35.057 368.040, 35.155 372.473 C 35.310 379.500, 35.310 379.500, 35.928 371.500 C 36.381 365.649, 37.221 362.291, 39.059 359 C 41.571 354.500, 41.571 354.500, 38.432 354.331 C 35.761 354.188, 35.045 354.682, 33.633 357.643 M 30.300 373 C 30.300 376.025, 30.487 377.262, 30.716 375.750 C 30.945 374.238, 30.945 371.762, 30.716 370.250 C 30.487 368.738, 30.300 369.975, 30.300 373 M 31.025 380 C 31.022 380.825, 32.070 383.750, 33.355 386.500 C 34.639 389.250, 36.920 392.957, 38.424 394.738 C 39.927 396.519, 42.585 398.956, 44.329 400.153 C 47.500 402.329, 47.500 402.329, 44.250 399.046 C 42.462 397.240, 41 395.141, 41 394.381 C 41 393.622, 41.255 393, 41.567 393 C 41.878 393, 43.608 394.125, 45.411 395.500 C 47.214 396.875, 49.044 398, 49.479 398 C 49.914 398, 48.972 396.991, 47.385 395.759 C 45.798 394.526, 43.686 392.613, 42.690 391.509 C 41.695 390.404, 39.808 387.250, 38.498 384.500 C 36.708 380.745, 36.101 380.081, 36.058 381.833 C 36.023 383.236, 35.502 384.002, 34.750 383.754 C 34.063 383.528, 32.944 382.253, 32.265 380.921 C 31.572 379.563, 31.027 379.159, 31.025 380 M 116 381 C 117.375 381.440, 119.175 381.814, 120 381.830 C 120.919 381.848, 120.725 381.527, 119.500 381 C 118.400 380.527, 116.600 380.154, 115.500 380.170 C 113.892 380.194, 113.990 380.356, 116 381 M 98.500 387 C 99.600 387.473, 101.400 387.846, 102.500 387.830 C 104.108 387.806, 104.010 387.644, 102 387 C 100.625 386.560, 98.825 386.186, 98 386.170 C 97.081 386.152, 97.275 386.473, 98.500 387 M 107 389 C 108.375 389.440, 110.175 389.814, 111 389.830 C 111.919 389.848, 111.725 389.527, 110.500 389 C 109.400 388.527, 107.600 388.154, 106.500 388.170 C 104.892 388.194, 104.990 388.356, 107 389 M 111.500 415 C 112.600 415.473, 114.175 415.859, 115 415.859 C 115.945 415.859, 115.761 415.542, 114.500 415 C 113.400 414.527, 111.825 414.141, 111 414.141 C 110.055 414.141, 110.239 414.458, 111.500 415" stroke="none" fill="#e2e2e2" fill-rule="evenodd"/><path d="M 253.304 20.397 C 248.796 21.634, 242.271 24.099, 238.804 25.874 C 235.337 27.650, 229.682 31.346, 226.237 34.087 C 222.792 36.828, 217.936 41.642, 215.446 44.785 C 212.956 47.928, 208.835 53.875, 206.288 58 C 203.742 62.125, 192.803 80.125, 181.980 98 C 171.157 115.875, 153.993 144.225, 143.838 161 C 133.683 177.775, 124.088 193.525, 122.516 196 C 120.944 198.475, 109.462 217.375, 97 238 C 84.538 258.625, 67.216 287.200, 58.507 301.500 C 49.797 315.800, 39.114 333.454, 34.767 340.731 C 30.419 348.008, 25.946 356.558, 24.827 359.731 C 23.053 364.761, 22.746 368.508, 22.434 389 C 22.234 402.082, 22.528 415.380, 23.096 418.996 C 23.658 422.569, 25.496 428.294, 27.182 431.718 C 29.011 435.434, 32.412 439.991, 35.621 443.026 C 38.576 445.821, 43.358 449.176, 46.247 450.482 C 49.136 451.787, 85.925 461.495, 128 472.054 C 204.282 491.199, 204.533 491.254, 216 491.359 C 224.149 491.433, 229.394 490.949, 234 489.698 C 237.575 488.727, 244.769 485.861, 249.987 483.329 C 258.017 479.432, 260.780 477.399, 267.987 470.083 C 273.642 464.342, 278.122 458.598, 281.333 452.971 C 283.990 448.312, 289.759 437.750, 294.153 429.500 C 298.546 421.250, 304.873 409.325, 308.214 403 C 311.555 396.675, 314.612 391.050, 315.008 390.500 C 315.404 389.950, 318.332 384.550, 321.515 378.500 C 324.698 372.450, 328.965 364.575, 330.996 361 C 333.028 357.425, 336.856 350.450, 339.502 345.500 C 342.149 340.550, 346.859 331.775, 349.970 326 C 353.081 320.225, 361.280 305.150, 368.191 292.500 C 375.101 279.850, 384.919 261.850, 390.009 252.500 C 395.099 243.150, 405.556 223.800, 413.246 209.500 C 420.937 195.200, 431.899 175.121, 437.606 164.881 C 443.313 154.641, 450.903 140.241, 454.473 132.881 C 458.044 125.521, 461.423 117.076, 461.982 114.114 C 462.542 111.151, 463 98.950, 463 87 C 463 75.050, 462.580 63.059, 462.067 60.353 C 461.554 57.647, 460.206 52.953, 459.072 49.921 C 457.901 46.793, 454.898 42.041, 452.125 38.929 C 449.438 35.915, 445.001 32.230, 442.265 30.741 C 439.528 29.251, 434.637 27.376, 431.395 26.573 C 427.896 25.706, 412.899 24.472, 394.500 23.537 C 377.450 22.671, 354.950 21.516, 344.500 20.970 C 334.050 20.424, 317.850 19.539, 308.500 19.003 C 299.150 18.467, 284.750 18.055, 276.500 18.089 C 264.175 18.138, 260.039 18.550, 253.304 20.397 M 255 27.266 C 250.875 28.539, 244.578 31.137, 241.007 33.040 C 237.435 34.943, 231.228 39.613, 227.214 43.418 C 222.895 47.511, 217.713 53.840, 214.522 58.918 C 211.556 63.638, 205.571 73.350, 201.221 80.500 C 196.871 87.650, 187.683 102.725, 180.802 114 C 173.921 125.275, 166.917 136.750, 165.237 139.500 C 163.558 142.250, 155.903 154.850, 148.226 167.500 C 140.549 180.150, 130.680 196.350, 126.295 203.500 C 121.910 210.650, 117.182 218.525, 115.787 221 C 114.393 223.475, 108.284 233.600, 102.212 243.500 C 96.139 253.400, 78.509 282.534, 63.033 308.242 C 47.556 333.951, 33.928 357.126, 32.746 359.742 C 31.145 363.288, 30.586 366.538, 30.549 372.500 C 30.508 379.120, 30.955 381.470, 33.135 386.120 C 34.585 389.211, 37.373 393.514, 39.332 395.682 C 41.290 397.850, 45.101 400.825, 47.799 402.294 C 51.279 404.188, 74.869 410.513, 128.953 424.054 C 188.071 438.855, 207.143 443.261, 213.850 443.671 C 219.768 444.032, 224.841 443.700, 229.913 442.619 C 233.991 441.750, 241.519 439, 246.643 436.507 C 253.970 432.943, 257.512 430.427, 263.230 424.727 C 267.534 420.435, 272.395 414.219, 275.144 409.489 C 277.699 405.095, 286.196 389.575, 294.028 375 C 301.860 360.425, 313.771 338.375, 320.496 326 C 327.222 313.625, 335.119 298.775, 338.046 293 C 340.972 287.225, 345.830 278, 348.840 272.500 C 351.850 267, 356.878 258.225, 360.013 253 C 363.148 247.775, 369.586 235.822, 374.320 226.437 C 379.054 217.052, 384.894 205.802, 387.296 201.437 C 389.699 197.072, 393.140 190.800, 394.944 187.500 C 396.748 184.200, 401.392 175.650, 405.265 168.500 C 409.138 161.350, 416.808 147.175, 422.309 137 C 427.810 126.825, 434.883 114, 438.029 108.500 C 441.174 103, 446.313 93.292, 449.450 86.928 C 454.847 75.975, 455.161 74.927, 455.306 67.365 C 455.443 60.218, 455.121 58.695, 452.260 52.937 C 450.501 49.397, 447.655 45.016, 445.936 43.203 C 444.217 41.389, 441.043 38.790, 438.883 37.426 C 436.724 36.063, 432.379 34.306, 429.228 33.523 C 426.078 32.739, 414.950 31.622, 404.500 31.040 C 394.050 30.458, 374.250 29.526, 360.500 28.969 C 346.750 28.412, 327.625 27.528, 318 27.004 C 308.375 26.481, 291.950 25.805, 281.500 25.502 C 263.609 24.983, 262.062 25.086, 255 27.266 M 258.512 32.614 C 255.219 33.410, 249.144 35.725, 245.012 37.758 C 239.709 40.367, 235.437 43.519, 230.484 48.477 C 224.346 54.622, 220.081 61.124, 196.360 100.500 C 181.449 125.250, 163.493 154.950, 156.456 166.500 C 149.419 178.050, 136.846 198.750, 128.515 212.500 C 120.185 226.250, 109.068 244.475, 103.811 253 C 98.555 261.525, 89.186 276.825, 82.992 287 C 76.798 297.175, 68.186 311.350, 63.855 318.500 C 59.523 325.650, 54.131 334.425, 51.873 338 C 49.615 341.575, 45.763 347.783, 43.314 351.795 C 40.864 355.808, 38.217 360.631, 37.430 362.513 C 36.644 364.396, 36 368.862, 36 372.439 C 36 377.137, 36.660 380.409, 38.375 384.221 C 39.681 387.125, 42.245 390.999, 44.072 392.830 C 45.899 394.662, 49.086 397.024, 51.155 398.079 C 53.223 399.134, 89.092 408.548, 130.864 418.999 C 200.983 436.541, 207.495 438, 215.696 438 C 220.582 438, 227.206 437.316, 230.416 436.480 C 233.626 435.644, 239.230 433.506, 242.870 431.730 C 247.418 429.510, 252.024 425.997, 257.593 420.500 C 262.916 415.245, 266.993 410.098, 269.475 405.500 C 271.553 401.650, 276.520 392.650, 280.513 385.500 C 284.505 378.350, 295.745 357.650, 305.491 339.500 C 315.236 321.350, 325.796 302, 328.958 296.500 C 332.119 291, 336.420 283.350, 338.515 279.500 C 340.610 275.650, 346.310 264.913, 351.182 255.640 C 356.054 246.367, 361.780 235.792, 363.907 232.140 C 366.034 228.488, 372.611 216.725, 378.523 206 C 384.435 195.275, 390.614 184.025, 392.254 181 C 393.894 177.975, 398.168 170.100, 401.752 163.500 C 405.335 156.900, 409.402 149.475, 410.788 147 C 412.175 144.525, 417.687 133.950, 423.036 123.500 C 428.385 113.050, 434.993 100.653, 437.719 95.951 C 440.446 91.249, 444.184 84.340, 446.026 80.599 C 448.733 75.099, 449.372 72.618, 449.361 67.648 C 449.352 63.497, 448.632 59.893, 447.144 56.555 C 445.932 53.835, 443.826 50.150, 442.465 48.365 C 441.104 46.581, 437.180 43.743, 433.745 42.060 C 428.413 39.447, 425.745 38.863, 415.500 38.068 C 408.900 37.555, 396.975 36.865, 389 36.534 C 381.025 36.203, 361.225 35.268, 345 34.456 C 328.775 33.644, 306.725 32.530, 296 31.981 C 285.275 31.431, 273.800 31.023, 270.500 31.074 C 267.200 31.125, 261.805 31.818, 258.512 32.614 M 428.668 146.250 C 427.911 147.488, 423.220 155.250, 418.246 163.500 C 413.271 171.750, 406.041 184.242, 402.179 191.261 C 398.317 198.279, 394.420 205.951, 393.519 208.310 C 392.514 210.942, 392.001 214.704, 392.191 218.049 C 392.452 222.646, 392.800 223.500, 394.415 223.500 C 395.619 223.500, 397.334 221.827, 399.031 219 C 400.516 216.525, 406.662 206.175, 412.690 196 C 418.717 185.825, 425.832 173.450, 428.499 168.500 C 432.838 160.449, 433.398 158.683, 433.803 151.750 C 434.234 144.394, 434.150 144, 432.152 144 C 430.994 144, 429.426 145.012, 428.668 146.250 M 90.950 378.093 C 90.334 379.244, 90.094 381.238, 90.416 382.523 C 90.867 384.317, 92.219 385.203, 96.251 386.344 C 99.138 387.160, 109.600 389.719, 119.500 392.030 C 129.400 394.341, 147.802 398.655, 160.393 401.616 C 172.984 404.577, 184.336 407, 185.620 407 C 187.006 407, 188.619 405.985, 189.592 404.500 C 191.101 402.198, 191.103 401.806, 189.618 399.539 C 188.708 398.150, 186.371 396.648, 184.253 396.091 C 182.189 395.548, 175.325 393.926, 169 392.486 C 162.675 391.047, 152.775 388.759, 147 387.401 C 141.225 386.044, 133.800 384.306, 130.500 383.539 C 127.200 382.771, 121.125 381.374, 117 380.434 C 112.875 379.495, 107.043 378.112, 104.040 377.363 C 101.037 376.613, 97.115 376, 95.325 376 C 93.046 376, 91.735 376.627, 90.950 378.093" stroke="none" fill="#040404" fill-rule="evenodd"/></svg>